<mxfile host="app.diagrams.net" modified="2024-04-09T02:48:13.533Z" agent="Mozilla/5.0 (Windows NT 10.0; Win64; x64) AppleWebKit/537.36 (KHTML, like Gecko) Chrome/123.0.0.0 Safari/537.36" etag="SOpSYdlQm9KifbYJL3xE" version="24.2.1" type="device">
  <diagram name="Page-1" id="dKdG1l-b8XT4-n1U0-iH">
    <mxGraphModel dx="2140" dy="530" grid="1" gridSize="10" guides="1" tooltips="1" connect="1" arrows="1" fold="1" page="1" pageScale="1" pageWidth="850" pageHeight="1100" math="0" shadow="0">
      <root>
        <mxCell id="0" />
        <mxCell id="1" parent="0" />
        <mxCell id="GRVf-cc35iNBk32rHGMJ-2" value="Members" style="whiteSpace=wrap;html=1;align=center;" parent="1" vertex="1">
          <mxGeometry x="120" y="160" width="100" height="40" as="geometry" />
        </mxCell>
        <mxCell id="GRVf-cc35iNBk32rHGMJ-5" value="last_name" style="ellipse;whiteSpace=wrap;html=1;align=center;" parent="1" vertex="1">
          <mxGeometry x="80" y="78" width="100" height="40" as="geometry" />
        </mxCell>
        <mxCell id="GRVf-cc35iNBk32rHGMJ-6" value="first_name" style="ellipse;whiteSpace=wrap;html=1;align=center;" parent="1" vertex="1">
          <mxGeometry x="-20" y="50" width="100" height="40" as="geometry" />
        </mxCell>
        <mxCell id="GRVf-cc35iNBk32rHGMJ-14" value="" style="endArrow=none;html=1;rounded=0;entryX=1;entryY=0.5;entryDx=0;entryDy=0;exitX=0;exitY=0;exitDx=0;exitDy=0;" parent="1" source="GRVf-cc35iNBk32rHGMJ-2" target="GRVf-cc35iNBk32rHGMJ-28" edge="1">
          <mxGeometry width="50" height="50" relative="1" as="geometry">
            <mxPoint x="400" y="310" as="sourcePoint" />
            <mxPoint x="10" y="160" as="targetPoint" />
          </mxGeometry>
        </mxCell>
        <mxCell id="GRVf-cc35iNBk32rHGMJ-15" value="" style="endArrow=none;html=1;rounded=0;entryX=0.416;entryY=0.97;entryDx=0;entryDy=0;entryPerimeter=0;exitX=0.25;exitY=0;exitDx=0;exitDy=0;" parent="1" source="GRVf-cc35iNBk32rHGMJ-2" target="GRVf-cc35iNBk32rHGMJ-6" edge="1">
          <mxGeometry width="50" height="50" relative="1" as="geometry">
            <mxPoint x="400" y="310" as="sourcePoint" />
            <mxPoint x="450" y="260" as="targetPoint" />
          </mxGeometry>
        </mxCell>
        <mxCell id="GRVf-cc35iNBk32rHGMJ-16" value="" style="endArrow=none;html=1;rounded=0;entryX=0.5;entryY=1;entryDx=0;entryDy=0;exitX=0.5;exitY=0;exitDx=0;exitDy=0;" parent="1" source="GRVf-cc35iNBk32rHGMJ-2" target="GRVf-cc35iNBk32rHGMJ-5" edge="1">
          <mxGeometry width="50" height="50" relative="1" as="geometry">
            <mxPoint x="400" y="310" as="sourcePoint" />
            <mxPoint x="450" y="260" as="targetPoint" />
          </mxGeometry>
        </mxCell>
        <mxCell id="GRVf-cc35iNBk32rHGMJ-23" value="1" style="text;html=1;align=center;verticalAlign=middle;resizable=0;points=[];autosize=1;strokeColor=none;fillColor=none;" parent="1" vertex="1">
          <mxGeometry x="577.5" y="118" width="30" height="30" as="geometry" />
        </mxCell>
        <mxCell id="GRVf-cc35iNBk32rHGMJ-27" value="" style="endArrow=none;html=1;rounded=0;entryX=0;entryY=0.5;entryDx=0;entryDy=0;exitX=0.75;exitY=0;exitDx=0;exitDy=0;" parent="1" source="GRVf-cc35iNBk32rHGMJ-134" target="GRVf-cc35iNBk32rHGMJ-32" edge="1">
          <mxGeometry width="50" height="50" relative="1" as="geometry">
            <mxPoint x="702.5" y="120" as="sourcePoint" />
            <mxPoint x="732.5" y="98" as="targetPoint" />
          </mxGeometry>
        </mxCell>
        <mxCell id="GRVf-cc35iNBk32rHGMJ-28" value="&lt;u&gt;mem_email&lt;/u&gt;" style="ellipse;whiteSpace=wrap;html=1;align=center;" parent="1" vertex="1">
          <mxGeometry x="-90" y="103" width="100" height="40" as="geometry" />
        </mxCell>
        <mxCell id="GRVf-cc35iNBk32rHGMJ-32" value="heart_rate" style="ellipse;shape=ellipse;margin=3;whiteSpace=wrap;html=1;align=center;" parent="1" vertex="1">
          <mxGeometry x="630" y="70" width="100" height="40" as="geometry" />
        </mxCell>
        <mxCell id="GRVf-cc35iNBk32rHGMJ-34" value="blood_pressure" style="ellipse;shape=ellipse;margin=3;whiteSpace=wrap;html=1;align=center;" parent="1" vertex="1">
          <mxGeometry x="507.5" y="50" width="100" height="40" as="geometry" />
        </mxCell>
        <mxCell id="GRVf-cc35iNBk32rHGMJ-37" value="Trainer" style="whiteSpace=wrap;html=1;align=center;" parent="1" vertex="1">
          <mxGeometry x="-320" y="385.5" width="100" height="40" as="geometry" />
        </mxCell>
        <mxCell id="GRVf-cc35iNBk32rHGMJ-38" value="last_name" style="ellipse;whiteSpace=wrap;html=1;align=center;" parent="1" vertex="1">
          <mxGeometry x="-240" y="468.5" width="100" height="40" as="geometry" />
        </mxCell>
        <mxCell id="GRVf-cc35iNBk32rHGMJ-39" value="first_name" style="ellipse;whiteSpace=wrap;html=1;align=center;" parent="1" vertex="1">
          <mxGeometry x="-370" y="465.5" width="100" height="40" as="geometry" />
        </mxCell>
        <mxCell id="GRVf-cc35iNBk32rHGMJ-40" value="" style="endArrow=none;html=1;rounded=0;entryX=1;entryY=0.5;entryDx=0;entryDy=0;exitX=0;exitY=0.5;exitDx=0;exitDy=0;" parent="1" source="GRVf-cc35iNBk32rHGMJ-37" target="GRVf-cc35iNBk32rHGMJ-44" edge="1">
          <mxGeometry width="50" height="50" relative="1" as="geometry">
            <mxPoint x="-30" y="555.5" as="sourcePoint" />
            <mxPoint x="-420" y="405.5" as="targetPoint" />
          </mxGeometry>
        </mxCell>
        <mxCell id="GRVf-cc35iNBk32rHGMJ-41" value="" style="endArrow=none;html=1;rounded=0;entryX=0.5;entryY=0;entryDx=0;entryDy=0;exitX=0.25;exitY=1;exitDx=0;exitDy=0;" parent="1" source="GRVf-cc35iNBk32rHGMJ-37" target="GRVf-cc35iNBk32rHGMJ-39" edge="1">
          <mxGeometry width="50" height="50" relative="1" as="geometry">
            <mxPoint x="-30" y="555.5" as="sourcePoint" />
            <mxPoint x="20" y="505.5" as="targetPoint" />
          </mxGeometry>
        </mxCell>
        <mxCell id="GRVf-cc35iNBk32rHGMJ-42" value="" style="endArrow=none;html=1;rounded=0;entryX=0.5;entryY=0;entryDx=0;entryDy=0;exitX=0.75;exitY=1;exitDx=0;exitDy=0;" parent="1" source="GRVf-cc35iNBk32rHGMJ-37" target="GRVf-cc35iNBk32rHGMJ-38" edge="1">
          <mxGeometry width="50" height="50" relative="1" as="geometry">
            <mxPoint x="-30" y="555.5" as="sourcePoint" />
            <mxPoint x="20" y="505.5" as="targetPoint" />
          </mxGeometry>
        </mxCell>
        <mxCell id="GRVf-cc35iNBk32rHGMJ-43" value="" style="resizable=0;html=1;whiteSpace=wrap;align=left;verticalAlign=bottom;" parent="1" connectable="0" vertex="1">
          <mxGeometry x="-210" y="425.5" as="geometry" />
        </mxCell>
        <mxCell id="GRVf-cc35iNBk32rHGMJ-44" value="&lt;u&gt;trainer_email&lt;/u&gt;" style="ellipse;whiteSpace=wrap;html=1;align=center;" parent="1" vertex="1">
          <mxGeometry x="-470" y="410" width="100" height="40" as="geometry" />
        </mxCell>
        <mxCell id="GRVf-cc35iNBk32rHGMJ-47" value="Admin_Staff" style="whiteSpace=wrap;html=1;align=center;" parent="1" vertex="1">
          <mxGeometry x="220" y="640" width="100" height="40" as="geometry" />
        </mxCell>
        <mxCell id="GRVf-cc35iNBk32rHGMJ-48" value="last_name" style="ellipse;whiteSpace=wrap;html=1;align=center;" parent="1" vertex="1">
          <mxGeometry x="230" y="727" width="100" height="37" as="geometry" />
        </mxCell>
        <mxCell id="GRVf-cc35iNBk32rHGMJ-49" value="first_name" style="ellipse;whiteSpace=wrap;html=1;align=center;" parent="1" vertex="1">
          <mxGeometry x="340" y="717" width="100" height="40" as="geometry" />
        </mxCell>
        <mxCell id="GRVf-cc35iNBk32rHGMJ-50" value="" style="endArrow=none;html=1;rounded=0;entryX=1;entryY=0.5;entryDx=0;entryDy=0;exitX=0;exitY=0.5;exitDx=0;exitDy=0;" parent="1" source="GRVf-cc35iNBk32rHGMJ-47" target="GRVf-cc35iNBk32rHGMJ-54" edge="1">
          <mxGeometry width="50" height="50" relative="1" as="geometry">
            <mxPoint x="490" y="767" as="sourcePoint" />
            <mxPoint x="100" y="617" as="targetPoint" />
          </mxGeometry>
        </mxCell>
        <mxCell id="GRVf-cc35iNBk32rHGMJ-51" value="" style="endArrow=none;html=1;rounded=0;entryX=0.5;entryY=0;entryDx=0;entryDy=0;exitX=1;exitY=1;exitDx=0;exitDy=0;" parent="1" source="GRVf-cc35iNBk32rHGMJ-47" target="GRVf-cc35iNBk32rHGMJ-49" edge="1">
          <mxGeometry width="50" height="50" relative="1" as="geometry">
            <mxPoint x="490" y="767" as="sourcePoint" />
            <mxPoint x="540" y="717" as="targetPoint" />
          </mxGeometry>
        </mxCell>
        <mxCell id="GRVf-cc35iNBk32rHGMJ-54" value="&lt;u&gt;admin_email&lt;/u&gt;" style="ellipse;whiteSpace=wrap;html=1;align=center;" parent="1" vertex="1">
          <mxGeometry x="110" y="714" width="100" height="40" as="geometry" />
        </mxCell>
        <mxCell id="GRVf-cc35iNBk32rHGMJ-57" value="" style="endArrow=none;html=1;rounded=0;entryX=0.5;entryY=0;entryDx=0;entryDy=0;exitX=0.5;exitY=1;exitDx=0;exitDy=0;" parent="1" source="GRVf-cc35iNBk32rHGMJ-47" target="GRVf-cc35iNBk32rHGMJ-48" edge="1">
          <mxGeometry width="50" height="50" relative="1" as="geometry">
            <mxPoint x="120" y="507" as="sourcePoint" />
            <mxPoint x="170" y="457" as="targetPoint" />
          </mxGeometry>
        </mxCell>
        <mxCell id="GRVf-cc35iNBk32rHGMJ-68" value="Personal_sessions" style="whiteSpace=wrap;html=1;align=center;" parent="1" vertex="1">
          <mxGeometry x="115" y="385" width="110" height="40" as="geometry" />
        </mxCell>
        <mxCell id="GRVf-cc35iNBk32rHGMJ-70" value="session_date" style="ellipse;whiteSpace=wrap;html=1;align=center;" parent="1" vertex="1">
          <mxGeometry x="175" y="455.5" width="100" height="40" as="geometry" />
        </mxCell>
        <mxCell id="GRVf-cc35iNBk32rHGMJ-71" value="" style="endArrow=none;html=1;rounded=0;entryX=0.5;entryY=0;entryDx=0;entryDy=0;exitX=1;exitY=0;exitDx=0;exitDy=0;" parent="1" source="GRVf-cc35iNBk32rHGMJ-68" target="GRVf-cc35iNBk32rHGMJ-73" edge="1">
          <mxGeometry width="50" height="50" relative="1" as="geometry">
            <mxPoint x="420" y="510.5" as="sourcePoint" />
            <mxPoint x="30" y="360.5" as="targetPoint" />
          </mxGeometry>
        </mxCell>
        <mxCell id="GRVf-cc35iNBk32rHGMJ-72" value="" style="endArrow=none;html=1;rounded=0;entryX=0.5;entryY=0;entryDx=0;entryDy=0;exitX=0.162;exitY=1.02;exitDx=0;exitDy=0;exitPerimeter=0;" parent="1" source="GRVf-cc35iNBk32rHGMJ-68" target="GRVf-cc35iNBk32rHGMJ-70" edge="1">
          <mxGeometry width="50" height="50" relative="1" as="geometry">
            <mxPoint x="420" y="510.5" as="sourcePoint" />
            <mxPoint x="470" y="460.5" as="targetPoint" />
          </mxGeometry>
        </mxCell>
        <mxCell id="GRVf-cc35iNBk32rHGMJ-73" value="&lt;u&gt;session_id&lt;/u&gt;" style="ellipse;whiteSpace=wrap;html=1;align=center;" parent="1" vertex="1">
          <mxGeometry x="290" y="353" width="100" height="40" as="geometry" />
        </mxCell>
        <mxCell id="GRVf-cc35iNBk32rHGMJ-74" value="session_time" style="ellipse;whiteSpace=wrap;html=1;align=center;" parent="1" vertex="1">
          <mxGeometry x="290" y="415.5" width="100" height="40" as="geometry" />
        </mxCell>
        <mxCell id="GRVf-cc35iNBk32rHGMJ-75" value="" style="endArrow=none;html=1;rounded=0;" parent="1" source="GRVf-cc35iNBk32rHGMJ-74" target="GRVf-cc35iNBk32rHGMJ-68" edge="1">
          <mxGeometry width="50" height="50" relative="1" as="geometry">
            <mxPoint x="420" y="500.5" as="sourcePoint" />
            <mxPoint x="470" y="450.5" as="targetPoint" />
          </mxGeometry>
        </mxCell>
        <mxCell id="GRVf-cc35iNBk32rHGMJ-77" value="books" style="shape=rhombus;perimeter=rhombusPerimeter;whiteSpace=wrap;html=1;align=center;" parent="1" vertex="1">
          <mxGeometry x="120" y="265" width="100" height="50" as="geometry" />
        </mxCell>
        <mxCell id="GRVf-cc35iNBk32rHGMJ-78" value="" style="resizable=0;html=1;whiteSpace=wrap;align=right;verticalAlign=bottom;" parent="1" connectable="0" vertex="1">
          <mxGeometry x="240" y="315" as="geometry" />
        </mxCell>
        <mxCell id="GRVf-cc35iNBk32rHGMJ-80" value="conducts" style="shape=rhombus;perimeter=rhombusPerimeter;whiteSpace=wrap;html=1;align=center;" parent="1" vertex="1">
          <mxGeometry x="-110" y="380.5" width="100" height="50" as="geometry" />
        </mxCell>
        <mxCell id="GRVf-cc35iNBk32rHGMJ-90" value="books" style="shape=rhombus;perimeter=rhombusPerimeter;whiteSpace=wrap;html=1;align=center;" parent="1" vertex="1">
          <mxGeometry x="-110" y="160" width="100" height="50" as="geometry" />
        </mxCell>
        <mxCell id="GRVf-cc35iNBk32rHGMJ-91" value="" style="resizable=0;html=1;whiteSpace=wrap;align=right;verticalAlign=bottom;" parent="1" connectable="0" vertex="1">
          <mxGeometry x="-215" y="84.5" as="geometry" />
        </mxCell>
        <mxCell id="GRVf-cc35iNBk32rHGMJ-92" value="conducts" style="shape=rhombus;perimeter=rhombusPerimeter;whiteSpace=wrap;html=1;align=center;" parent="1" vertex="1">
          <mxGeometry x="-320" y="265" width="100" height="50" as="geometry" />
        </mxCell>
        <mxCell id="GRVf-cc35iNBk32rHGMJ-93" value="Rooms" style="whiteSpace=wrap;html=1;align=center;" parent="1" vertex="1">
          <mxGeometry x="-285" y="623" width="100" height="40" as="geometry" />
        </mxCell>
        <mxCell id="GRVf-cc35iNBk32rHGMJ-96" value="" style="endArrow=none;html=1;rounded=0;entryX=0.5;entryY=0;entryDx=0;entryDy=0;exitX=0.5;exitY=1;exitDx=0;exitDy=0;" parent="1" source="GRVf-cc35iNBk32rHGMJ-93" target="GRVf-cc35iNBk32rHGMJ-100" edge="1">
          <mxGeometry width="50" height="50" relative="1" as="geometry">
            <mxPoint x="-10" y="794" as="sourcePoint" />
            <mxPoint x="-400" y="644" as="targetPoint" />
          </mxGeometry>
        </mxCell>
        <mxCell id="GRVf-cc35iNBk32rHGMJ-99" value="" style="resizable=0;html=1;whiteSpace=wrap;align=left;verticalAlign=bottom;" parent="1" connectable="0" vertex="1">
          <mxGeometry x="-190" y="664" as="geometry" />
        </mxCell>
        <mxCell id="GRVf-cc35iNBk32rHGMJ-100" value="&lt;i&gt;room_id&lt;/i&gt;" style="ellipse;whiteSpace=wrap;html=1;align=center;" parent="1" vertex="1">
          <mxGeometry x="-340" y="694" width="100" height="40" as="geometry" />
        </mxCell>
        <mxCell id="GRVf-cc35iNBk32rHGMJ-101" value="building" style="ellipse;whiteSpace=wrap;html=1;align=center;" parent="1" vertex="1">
          <mxGeometry x="-230" y="684" width="100" height="40" as="geometry" />
        </mxCell>
        <mxCell id="GRVf-cc35iNBk32rHGMJ-102" value="" style="endArrow=none;html=1;rounded=0;" parent="1" source="GRVf-cc35iNBk32rHGMJ-101" target="GRVf-cc35iNBk32rHGMJ-93" edge="1">
          <mxGeometry width="50" height="50" relative="1" as="geometry">
            <mxPoint x="-10" y="784" as="sourcePoint" />
            <mxPoint x="40" y="734" as="targetPoint" />
          </mxGeometry>
        </mxCell>
        <mxCell id="GRVf-cc35iNBk32rHGMJ-103" value="Equipment" style="whiteSpace=wrap;html=1;align=center;" parent="1" vertex="1">
          <mxGeometry x="710" y="634" width="100" height="40" as="geometry" />
        </mxCell>
        <mxCell id="GRVf-cc35iNBk32rHGMJ-104" value="maintenance_date" style="ellipse;whiteSpace=wrap;html=1;align=center;" parent="1" vertex="1">
          <mxGeometry x="780" y="717" width="110" height="43" as="geometry" />
        </mxCell>
        <mxCell id="GRVf-cc35iNBk32rHGMJ-105" value="equip_name" style="ellipse;whiteSpace=wrap;html=1;align=center;" parent="1" vertex="1">
          <mxGeometry x="650" y="714" width="100" height="40" as="geometry" />
        </mxCell>
        <mxCell id="GRVf-cc35iNBk32rHGMJ-107" value="" style="endArrow=none;html=1;rounded=0;entryX=0.5;entryY=0;entryDx=0;entryDy=0;exitX=0.25;exitY=1;exitDx=0;exitDy=0;" parent="1" source="GRVf-cc35iNBk32rHGMJ-103" target="GRVf-cc35iNBk32rHGMJ-105" edge="1">
          <mxGeometry width="50" height="50" relative="1" as="geometry">
            <mxPoint x="990" y="804" as="sourcePoint" />
            <mxPoint x="1040" y="754" as="targetPoint" />
          </mxGeometry>
        </mxCell>
        <mxCell id="GRVf-cc35iNBk32rHGMJ-108" value="" style="endArrow=none;html=1;rounded=0;entryX=0.5;entryY=0;entryDx=0;entryDy=0;exitX=0.75;exitY=1;exitDx=0;exitDy=0;" parent="1" source="GRVf-cc35iNBk32rHGMJ-103" target="GRVf-cc35iNBk32rHGMJ-104" edge="1">
          <mxGeometry width="50" height="50" relative="1" as="geometry">
            <mxPoint x="990" y="804" as="sourcePoint" />
            <mxPoint x="1040" y="754" as="targetPoint" />
          </mxGeometry>
        </mxCell>
        <mxCell id="GRVf-cc35iNBk32rHGMJ-109" value="" style="resizable=0;html=1;whiteSpace=wrap;align=left;verticalAlign=bottom;" parent="1" connectable="0" vertex="1">
          <mxGeometry x="810" y="674" as="geometry" />
        </mxCell>
        <mxCell id="GRVf-cc35iNBk32rHGMJ-111" value="&lt;u&gt;equip_id&lt;/u&gt;" style="ellipse;whiteSpace=wrap;html=1;align=center;" parent="1" vertex="1">
          <mxGeometry x="530" y="687" width="100" height="40" as="geometry" />
        </mxCell>
        <mxCell id="GRVf-cc35iNBk32rHGMJ-112" value="" style="endArrow=none;html=1;rounded=0;" parent="1" source="GRVf-cc35iNBk32rHGMJ-111" target="GRVf-cc35iNBk32rHGMJ-103" edge="1">
          <mxGeometry width="50" height="50" relative="1" as="geometry">
            <mxPoint x="990" y="794" as="sourcePoint" />
            <mxPoint x="1040" y="744" as="targetPoint" />
          </mxGeometry>
        </mxCell>
        <mxCell id="GRVf-cc35iNBk32rHGMJ-113" value="Billings" style="whiteSpace=wrap;html=1;align=center;" parent="1" vertex="1">
          <mxGeometry x="582.5" y="455" width="100" height="40" as="geometry" />
        </mxCell>
        <mxCell id="GRVf-cc35iNBk32rHGMJ-114" value="billing_date" style="ellipse;whiteSpace=wrap;html=1;align=center;" parent="1" vertex="1">
          <mxGeometry x="712.5" y="528.5" width="100" height="40" as="geometry" />
        </mxCell>
        <mxCell id="GRVf-cc35iNBk32rHGMJ-115" value="amount" style="ellipse;whiteSpace=wrap;html=1;align=center;" parent="1" vertex="1">
          <mxGeometry x="582.5" y="540" width="100" height="40" as="geometry" />
        </mxCell>
        <mxCell id="GRVf-cc35iNBk32rHGMJ-117" value="" style="endArrow=none;html=1;rounded=0;entryX=0.5;entryY=0;entryDx=0;entryDy=0;exitX=0.25;exitY=1;exitDx=0;exitDy=0;" parent="1" source="GRVf-cc35iNBk32rHGMJ-113" target="GRVf-cc35iNBk32rHGMJ-115" edge="1">
          <mxGeometry width="50" height="50" relative="1" as="geometry">
            <mxPoint x="862.5" y="625" as="sourcePoint" />
            <mxPoint x="912.5" y="575" as="targetPoint" />
          </mxGeometry>
        </mxCell>
        <mxCell id="GRVf-cc35iNBk32rHGMJ-118" value="" style="endArrow=none;html=1;rounded=0;entryX=0.5;entryY=0;entryDx=0;entryDy=0;exitX=0.75;exitY=1;exitDx=0;exitDy=0;" parent="1" source="GRVf-cc35iNBk32rHGMJ-113" target="GRVf-cc35iNBk32rHGMJ-114" edge="1">
          <mxGeometry width="50" height="50" relative="1" as="geometry">
            <mxPoint x="862.5" y="625" as="sourcePoint" />
            <mxPoint x="912.5" y="575" as="targetPoint" />
          </mxGeometry>
        </mxCell>
        <mxCell id="GRVf-cc35iNBk32rHGMJ-119" value="" style="resizable=0;html=1;whiteSpace=wrap;align=left;verticalAlign=bottom;" parent="1" connectable="0" vertex="1">
          <mxGeometry x="682.5" y="495" as="geometry" />
        </mxCell>
        <mxCell id="GRVf-cc35iNBk32rHGMJ-121" value="&lt;u&gt;billing_id&lt;/u&gt;" style="ellipse;whiteSpace=wrap;html=1;align=center;" parent="1" vertex="1">
          <mxGeometry x="732.5" y="445" width="100" height="40" as="geometry" />
        </mxCell>
        <mxCell id="GRVf-cc35iNBk32rHGMJ-122" value="" style="endArrow=none;html=1;rounded=0;" parent="1" source="GRVf-cc35iNBk32rHGMJ-121" target="GRVf-cc35iNBk32rHGMJ-113" edge="1">
          <mxGeometry width="50" height="50" relative="1" as="geometry">
            <mxPoint x="862.5" y="615" as="sourcePoint" />
            <mxPoint x="912.5" y="565" as="targetPoint" />
          </mxGeometry>
        </mxCell>
        <mxCell id="GRVf-cc35iNBk32rHGMJ-123" value="Group_classes" style="whiteSpace=wrap;html=1;align=center;" parent="1" vertex="1">
          <mxGeometry x="-320" y="165" width="100" height="40" as="geometry" />
        </mxCell>
        <mxCell id="GRVf-cc35iNBk32rHGMJ-125" value="class_date" style="ellipse;whiteSpace=wrap;html=1;align=center;" parent="1" vertex="1">
          <mxGeometry x="-455" y="75" width="100" height="40" as="geometry" />
        </mxCell>
        <mxCell id="GRVf-cc35iNBk32rHGMJ-126" value="" style="endArrow=none;html=1;rounded=0;entryX=1;entryY=0.5;entryDx=0;entryDy=0;exitX=0;exitY=0.5;exitDx=0;exitDy=0;" parent="1" source="GRVf-cc35iNBk32rHGMJ-123" target="GRVf-cc35iNBk32rHGMJ-130" edge="1">
          <mxGeometry width="50" height="50" relative="1" as="geometry">
            <mxPoint x="-35" y="335" as="sourcePoint" />
            <mxPoint x="-425" y="185" as="targetPoint" />
          </mxGeometry>
        </mxCell>
        <mxCell id="GRVf-cc35iNBk32rHGMJ-127" value="" style="endArrow=none;html=1;rounded=0;entryX=0.5;entryY=1;entryDx=0;entryDy=0;exitX=0.25;exitY=0;exitDx=0;exitDy=0;" parent="1" source="GRVf-cc35iNBk32rHGMJ-123" target="GRVf-cc35iNBk32rHGMJ-125" edge="1">
          <mxGeometry width="50" height="50" relative="1" as="geometry">
            <mxPoint x="-35" y="335" as="sourcePoint" />
            <mxPoint x="15" y="285" as="targetPoint" />
          </mxGeometry>
        </mxCell>
        <mxCell id="GRVf-cc35iNBk32rHGMJ-129" value="" style="resizable=0;html=1;whiteSpace=wrap;align=left;verticalAlign=bottom;" parent="1" connectable="0" vertex="1">
          <mxGeometry x="-215" y="205" as="geometry" />
        </mxCell>
        <mxCell id="GRVf-cc35iNBk32rHGMJ-130" value="&lt;u&gt;class_id&lt;/u&gt;" style="ellipse;whiteSpace=wrap;html=1;align=center;" parent="1" vertex="1">
          <mxGeometry x="-480" y="135" width="100" height="40" as="geometry" />
        </mxCell>
        <mxCell id="GRVf-cc35iNBk32rHGMJ-131" value="class_time" style="ellipse;whiteSpace=wrap;html=1;align=center;" parent="1" vertex="1">
          <mxGeometry x="-355" y="55" width="100" height="40" as="geometry" />
        </mxCell>
        <mxCell id="GRVf-cc35iNBk32rHGMJ-132" value="" style="endArrow=none;html=1;rounded=0;" parent="1" source="GRVf-cc35iNBk32rHGMJ-131" target="GRVf-cc35iNBk32rHGMJ-123" edge="1">
          <mxGeometry width="50" height="50" relative="1" as="geometry">
            <mxPoint x="-35" y="325" as="sourcePoint" />
            <mxPoint x="15" y="275" as="targetPoint" />
          </mxGeometry>
        </mxCell>
        <mxCell id="GRVf-cc35iNBk32rHGMJ-134" value="Health_metrics" style="shape=ext;margin=3;double=1;whiteSpace=wrap;html=1;align=center;" parent="1" vertex="1">
          <mxGeometry x="520" y="120" width="100" height="40" as="geometry" />
        </mxCell>
        <mxCell id="GRVf-cc35iNBk32rHGMJ-137" value="manages" style="shape=rhombus;perimeter=rhombusPerimeter;whiteSpace=wrap;html=1;align=center;" parent="1" vertex="1">
          <mxGeometry x="-50" y="619" width="100" height="50" as="geometry" />
        </mxCell>
        <mxCell id="GRVf-cc35iNBk32rHGMJ-139" value="monitors" style="shape=rhombus;perimeter=rhombusPerimeter;whiteSpace=wrap;html=1;align=center;" parent="1" vertex="1">
          <mxGeometry x="450" y="634" width="100" height="50" as="geometry" />
        </mxCell>
        <mxCell id="GRVf-cc35iNBk32rHGMJ-140" value="pay" style="shape=rhombus;perimeter=rhombusPerimeter;whiteSpace=wrap;html=1;align=center;" parent="1" vertex="1">
          <mxGeometry x="360" y="270" width="100" height="50" as="geometry" />
        </mxCell>
        <mxCell id="GRVf-cc35iNBk32rHGMJ-141" value="process" style="shape=rhombus;perimeter=rhombusPerimeter;whiteSpace=wrap;html=1;align=center;" parent="1" vertex="1">
          <mxGeometry x="390" y="525" width="100" height="50" as="geometry" />
        </mxCell>
        <mxCell id="GRVf-cc35iNBk32rHGMJ-142" value="blood_sugar" style="ellipse;shape=ellipse;margin=3;whiteSpace=wrap;html=1;align=center;" parent="1" vertex="1">
          <mxGeometry x="700" y="125" width="100" height="40" as="geometry" />
        </mxCell>
        <mxCell id="GRVf-cc35iNBk32rHGMJ-144" value="" style="endArrow=none;html=1;rounded=0;entryX=0;entryY=0.5;entryDx=0;entryDy=0;exitX=1;exitY=0.75;exitDx=0;exitDy=0;" parent="1" source="GRVf-cc35iNBk32rHGMJ-134" target="GRVf-cc35iNBk32rHGMJ-142" edge="1">
          <mxGeometry width="50" height="50" relative="1" as="geometry">
            <mxPoint x="717.5" y="230" as="sourcePoint" />
            <mxPoint x="597.5" y="330" as="targetPoint" />
          </mxGeometry>
        </mxCell>
        <mxCell id="GRVf-cc35iNBk32rHGMJ-146" value="" style="endArrow=none;html=1;rounded=0;entryX=0;entryY=0.5;entryDx=0;entryDy=0;exitX=1;exitY=1;exitDx=0;exitDy=0;" parent="1" source="GRVf-cc35iNBk32rHGMJ-134" target="GRVf-cc35iNBk32rHGMJ-147" edge="1">
          <mxGeometry width="50" height="50" relative="1" as="geometry">
            <mxPoint x="767.5" y="230" as="sourcePoint" />
            <mxPoint x="817.5" y="330" as="targetPoint" />
          </mxGeometry>
        </mxCell>
        <mxCell id="GRVf-cc35iNBk32rHGMJ-147" value="weight" style="ellipse;shape=ellipse;margin=3;whiteSpace=wrap;html=1;align=center;" parent="1" vertex="1">
          <mxGeometry x="670" y="185" width="100" height="40" as="geometry" />
        </mxCell>
        <mxCell id="GRVf-cc35iNBk32rHGMJ-151" value="" style="shape=link;html=1;rounded=0;entryX=0;entryY=1;entryDx=0;entryDy=0;exitX=1;exitY=0;exitDx=0;exitDy=0;" parent="1" source="8PQpxy9O9Xi7V9xS_Nx0-37" target="GRVf-cc35iNBk32rHGMJ-134" edge="1">
          <mxGeometry width="100" relative="1" as="geometry">
            <mxPoint x="460" y="157" as="sourcePoint" />
            <mxPoint x="330" y="417" as="targetPoint" />
          </mxGeometry>
        </mxCell>
        <mxCell id="GRVf-cc35iNBk32rHGMJ-154" value="" style="endArrow=none;html=1;rounded=0;entryX=0;entryY=0;entryDx=0;entryDy=0;exitX=0.5;exitY=1;exitDx=0;exitDy=0;" parent="1" source="GRVf-cc35iNBk32rHGMJ-2" target="GRVf-cc35iNBk32rHGMJ-140" edge="1">
          <mxGeometry width="50" height="50" relative="1" as="geometry">
            <mxPoint x="250" y="420" as="sourcePoint" />
            <mxPoint x="300" y="370" as="targetPoint" />
          </mxGeometry>
        </mxCell>
        <mxCell id="GRVf-cc35iNBk32rHGMJ-156" value="1" style="text;html=1;align=center;verticalAlign=middle;resizable=0;points=[];autosize=1;strokeColor=none;fillColor=none;" parent="1" vertex="1">
          <mxGeometry x="210" y="198" width="30" height="30" as="geometry" />
        </mxCell>
        <mxCell id="GRVf-cc35iNBk32rHGMJ-157" value="M" style="text;html=1;align=center;verticalAlign=middle;resizable=0;points=[];autosize=1;strokeColor=none;fillColor=none;" parent="1" vertex="1">
          <mxGeometry x="555" y="425" width="30" height="30" as="geometry" />
        </mxCell>
        <mxCell id="GRVf-cc35iNBk32rHGMJ-159" value="" style="endArrow=none;html=1;rounded=0;entryX=0.5;entryY=1;entryDx=0;entryDy=0;exitX=0.5;exitY=0;exitDx=0;exitDy=0;" parent="1" source="GRVf-cc35iNBk32rHGMJ-68" target="GRVf-cc35iNBk32rHGMJ-77" edge="1">
          <mxGeometry width="50" height="50" relative="1" as="geometry">
            <mxPoint x="250" y="420" as="sourcePoint" />
            <mxPoint x="300" y="370" as="targetPoint" />
          </mxGeometry>
        </mxCell>
        <mxCell id="GRVf-cc35iNBk32rHGMJ-161" value="M" style="text;html=1;align=center;verticalAlign=middle;resizable=0;points=[];autosize=1;strokeColor=none;fillColor=none;" parent="1" vertex="1">
          <mxGeometry x="175" y="358" width="30" height="30" as="geometry" />
        </mxCell>
        <mxCell id="GRVf-cc35iNBk32rHGMJ-163" value="1" style="text;html=1;align=center;verticalAlign=middle;resizable=0;points=[];autosize=1;strokeColor=none;fillColor=none;" parent="1" vertex="1">
          <mxGeometry x="145" y="198" width="30" height="30" as="geometry" />
        </mxCell>
        <mxCell id="GRVf-cc35iNBk32rHGMJ-168" value="" style="endArrow=none;html=1;rounded=0;" parent="1" source="GRVf-cc35iNBk32rHGMJ-77" target="GRVf-cc35iNBk32rHGMJ-2" edge="1">
          <mxGeometry width="50" height="50" relative="1" as="geometry">
            <mxPoint x="250" y="420" as="sourcePoint" />
            <mxPoint x="300" y="370" as="targetPoint" />
          </mxGeometry>
        </mxCell>
        <mxCell id="GRVf-cc35iNBk32rHGMJ-169" value="" style="endArrow=none;html=1;rounded=0;exitX=1;exitY=0.5;exitDx=0;exitDy=0;entryX=0;entryY=0.5;entryDx=0;entryDy=0;" parent="1" source="GRVf-cc35iNBk32rHGMJ-37" target="GRVf-cc35iNBk32rHGMJ-80" edge="1">
          <mxGeometry width="50" height="50" relative="1" as="geometry">
            <mxPoint x="250" y="420" as="sourcePoint" />
            <mxPoint x="300" y="370" as="targetPoint" />
          </mxGeometry>
        </mxCell>
        <mxCell id="GRVf-cc35iNBk32rHGMJ-171" value="" style="shape=link;html=1;rounded=0;exitX=1;exitY=0.5;exitDx=0;exitDy=0;entryX=0;entryY=0.5;entryDx=0;entryDy=0;" parent="1" source="GRVf-cc35iNBk32rHGMJ-80" target="GRVf-cc35iNBk32rHGMJ-68" edge="1">
          <mxGeometry width="100" relative="1" as="geometry">
            <mxPoint x="220" y="400" as="sourcePoint" />
            <mxPoint x="320" y="400" as="targetPoint" />
          </mxGeometry>
        </mxCell>
        <mxCell id="GRVf-cc35iNBk32rHGMJ-172" value="" style="shape=link;html=1;rounded=0;exitX=0.5;exitY=1;exitDx=0;exitDy=0;entryX=0.5;entryY=0;entryDx=0;entryDy=0;" parent="1" source="GRVf-cc35iNBk32rHGMJ-123" target="GRVf-cc35iNBk32rHGMJ-92" edge="1">
          <mxGeometry width="100" relative="1" as="geometry">
            <mxPoint x="220" y="400" as="sourcePoint" />
            <mxPoint x="320" y="400" as="targetPoint" />
          </mxGeometry>
        </mxCell>
        <mxCell id="GRVf-cc35iNBk32rHGMJ-173" value="" style="endArrow=none;html=1;rounded=0;exitX=0.5;exitY=0;exitDx=0;exitDy=0;entryX=0.5;entryY=1;entryDx=0;entryDy=0;" parent="1" source="GRVf-cc35iNBk32rHGMJ-37" target="GRVf-cc35iNBk32rHGMJ-92" edge="1">
          <mxGeometry width="50" height="50" relative="1" as="geometry">
            <mxPoint x="250" y="420" as="sourcePoint" />
            <mxPoint x="300" y="370" as="targetPoint" />
          </mxGeometry>
        </mxCell>
        <mxCell id="GRVf-cc35iNBk32rHGMJ-174" value="" style="endArrow=none;html=1;rounded=0;entryX=1;entryY=0.5;entryDx=0;entryDy=0;exitX=0;exitY=0.5;exitDx=0;exitDy=0;" parent="1" source="GRVf-cc35iNBk32rHGMJ-2" target="GRVf-cc35iNBk32rHGMJ-90" edge="1">
          <mxGeometry width="50" height="50" relative="1" as="geometry">
            <mxPoint x="250" y="420" as="sourcePoint" />
            <mxPoint x="300" y="370" as="targetPoint" />
          </mxGeometry>
        </mxCell>
        <mxCell id="GRVf-cc35iNBk32rHGMJ-175" value="" style="endArrow=none;html=1;rounded=0;exitX=1;exitY=0.5;exitDx=0;exitDy=0;entryX=0;entryY=0.5;entryDx=0;entryDy=0;" parent="1" source="GRVf-cc35iNBk32rHGMJ-123" target="GRVf-cc35iNBk32rHGMJ-90" edge="1">
          <mxGeometry width="50" height="50" relative="1" as="geometry">
            <mxPoint x="250" y="420" as="sourcePoint" />
            <mxPoint x="300" y="370" as="targetPoint" />
          </mxGeometry>
        </mxCell>
        <mxCell id="GRVf-cc35iNBk32rHGMJ-176" value="" style="endArrow=none;html=1;rounded=0;exitX=0.5;exitY=0;exitDx=0;exitDy=0;entryX=0;entryY=0.5;entryDx=0;entryDy=0;" parent="1" source="GRVf-cc35iNBk32rHGMJ-47" target="GRVf-cc35iNBk32rHGMJ-141" edge="1">
          <mxGeometry width="50" height="50" relative="1" as="geometry">
            <mxPoint x="250" y="420" as="sourcePoint" />
            <mxPoint x="300" y="370" as="targetPoint" />
          </mxGeometry>
        </mxCell>
        <mxCell id="GRVf-cc35iNBk32rHGMJ-177" value="" style="endArrow=none;html=1;rounded=0;exitX=1;exitY=0;exitDx=0;exitDy=0;" parent="1" source="GRVf-cc35iNBk32rHGMJ-141" target="GRVf-cc35iNBk32rHGMJ-113" edge="1">
          <mxGeometry width="50" height="50" relative="1" as="geometry">
            <mxPoint x="250" y="420" as="sourcePoint" />
            <mxPoint x="300" y="370" as="targetPoint" />
          </mxGeometry>
        </mxCell>
        <mxCell id="GRVf-cc35iNBk32rHGMJ-178" value="" style="endArrow=none;html=1;rounded=0;entryX=0;entryY=0.5;entryDx=0;entryDy=0;exitX=1;exitY=0.5;exitDx=0;exitDy=0;" parent="1" source="GRVf-cc35iNBk32rHGMJ-139" target="GRVf-cc35iNBk32rHGMJ-103" edge="1">
          <mxGeometry width="50" height="50" relative="1" as="geometry">
            <mxPoint x="250" y="420" as="sourcePoint" />
            <mxPoint x="300" y="370" as="targetPoint" />
          </mxGeometry>
        </mxCell>
        <mxCell id="GRVf-cc35iNBk32rHGMJ-179" value="" style="endArrow=none;html=1;rounded=0;entryX=0;entryY=0.5;entryDx=0;entryDy=0;exitX=1;exitY=0.5;exitDx=0;exitDy=0;" parent="1" source="GRVf-cc35iNBk32rHGMJ-47" target="GRVf-cc35iNBk32rHGMJ-139" edge="1">
          <mxGeometry width="50" height="50" relative="1" as="geometry">
            <mxPoint x="250" y="420" as="sourcePoint" />
            <mxPoint x="300" y="370" as="targetPoint" />
          </mxGeometry>
        </mxCell>
        <mxCell id="GRVf-cc35iNBk32rHGMJ-180" value="" style="endArrow=none;html=1;rounded=0;exitX=0;exitY=0.25;exitDx=0;exitDy=0;entryX=1;entryY=0.5;entryDx=0;entryDy=0;" parent="1" source="GRVf-cc35iNBk32rHGMJ-47" target="GRVf-cc35iNBk32rHGMJ-137" edge="1">
          <mxGeometry width="50" height="50" relative="1" as="geometry">
            <mxPoint x="250" y="420" as="sourcePoint" />
            <mxPoint x="300" y="370" as="targetPoint" />
          </mxGeometry>
        </mxCell>
        <mxCell id="GRVf-cc35iNBk32rHGMJ-181" value="" style="endArrow=none;html=1;rounded=0;exitX=1;exitY=0.5;exitDx=0;exitDy=0;entryX=0;entryY=0.5;entryDx=0;entryDy=0;" parent="1" source="GRVf-cc35iNBk32rHGMJ-93" target="GRVf-cc35iNBk32rHGMJ-137" edge="1">
          <mxGeometry width="50" height="50" relative="1" as="geometry">
            <mxPoint x="250" y="420" as="sourcePoint" />
            <mxPoint x="300" y="370" as="targetPoint" />
          </mxGeometry>
        </mxCell>
        <mxCell id="GRVf-cc35iNBk32rHGMJ-183" value="" style="shape=link;html=1;rounded=0;entryX=0;entryY=1;entryDx=0;entryDy=0;" parent="1" source="GRVf-cc35iNBk32rHGMJ-185" target="GRVf-cc35iNBk32rHGMJ-68" edge="1">
          <mxGeometry width="100" relative="1" as="geometry">
            <mxPoint x="220" y="400" as="sourcePoint" />
            <mxPoint x="320" y="400" as="targetPoint" />
          </mxGeometry>
        </mxCell>
        <mxCell id="GRVf-cc35iNBk32rHGMJ-185" value="hosts" style="shape=rhombus;perimeter=rhombusPerimeter;whiteSpace=wrap;html=1;align=center;" parent="1" vertex="1">
          <mxGeometry x="-100" y="520" width="120" height="60" as="geometry" />
        </mxCell>
        <mxCell id="GRVf-cc35iNBk32rHGMJ-186" value="" style="endArrow=none;html=1;rounded=0;exitX=1;exitY=0;exitDx=0;exitDy=0;" parent="1" source="GRVf-cc35iNBk32rHGMJ-93" target="GRVf-cc35iNBk32rHGMJ-185" edge="1">
          <mxGeometry width="50" height="50" relative="1" as="geometry">
            <mxPoint x="250" y="420" as="sourcePoint" />
            <mxPoint x="300" y="370" as="targetPoint" />
          </mxGeometry>
        </mxCell>
        <mxCell id="GRVf-cc35iNBk32rHGMJ-187" value="hosts" style="shape=rhombus;perimeter=rhombusPerimeter;whiteSpace=wrap;html=1;align=center;" parent="1" vertex="1">
          <mxGeometry x="-680" y="375" width="120" height="60" as="geometry" />
        </mxCell>
        <mxCell id="GRVf-cc35iNBk32rHGMJ-188" value="" style="shape=link;html=1;rounded=0;entryX=0;entryY=0.75;entryDx=0;entryDy=0;" parent="1" source="GRVf-cc35iNBk32rHGMJ-187" target="GRVf-cc35iNBk32rHGMJ-123" edge="1">
          <mxGeometry width="100" relative="1" as="geometry">
            <mxPoint x="220" y="400" as="sourcePoint" />
            <mxPoint x="320" y="400" as="targetPoint" />
          </mxGeometry>
        </mxCell>
        <mxCell id="GRVf-cc35iNBk32rHGMJ-189" value="" style="endArrow=none;html=1;rounded=0;exitX=0;exitY=0.5;exitDx=0;exitDy=0;entryX=1;entryY=1;entryDx=0;entryDy=0;" parent="1" source="GRVf-cc35iNBk32rHGMJ-93" target="GRVf-cc35iNBk32rHGMJ-187" edge="1">
          <mxGeometry width="50" height="50" relative="1" as="geometry">
            <mxPoint x="250" y="420" as="sourcePoint" />
            <mxPoint x="300" y="370" as="targetPoint" />
          </mxGeometry>
        </mxCell>
        <mxCell id="GRVf-cc35iNBk32rHGMJ-191" value="" style="shape=link;html=1;rounded=0;exitX=1;exitY=1;exitDx=0;exitDy=0;" parent="1" source="GRVf-cc35iNBk32rHGMJ-140" target="GRVf-cc35iNBk32rHGMJ-113" edge="1">
          <mxGeometry width="100" relative="1" as="geometry">
            <mxPoint x="220" y="400" as="sourcePoint" />
            <mxPoint x="320" y="400" as="targetPoint" />
          </mxGeometry>
        </mxCell>
        <mxCell id="GRVf-cc35iNBk32rHGMJ-192" value="N" style="text;html=1;align=center;verticalAlign=middle;resizable=0;points=[];autosize=1;strokeColor=none;fillColor=none;" parent="1" vertex="1">
          <mxGeometry x="-225" y="160" width="30" height="30" as="geometry" />
        </mxCell>
        <mxCell id="GRVf-cc35iNBk32rHGMJ-193" value="M" style="text;html=1;align=center;verticalAlign=middle;resizable=0;points=[];autosize=1;strokeColor=none;fillColor=none;" parent="1" vertex="1">
          <mxGeometry x="80" y="155" width="30" height="30" as="geometry" />
        </mxCell>
        <mxCell id="GRVf-cc35iNBk32rHGMJ-194" value="1" style="text;html=1;align=center;verticalAlign=middle;resizable=0;points=[];autosize=1;strokeColor=none;fillColor=none;" parent="1" vertex="1">
          <mxGeometry x="-215" y="368" width="30" height="30" as="geometry" />
        </mxCell>
        <mxCell id="GRVf-cc35iNBk32rHGMJ-195" value="M" style="text;html=1;align=center;verticalAlign=middle;resizable=0;points=[];autosize=1;strokeColor=none;fillColor=none;" parent="1" vertex="1">
          <mxGeometry x="75" y="368" width="30" height="30" as="geometry" />
        </mxCell>
        <mxCell id="GRVf-cc35iNBk32rHGMJ-196" value="M" style="text;html=1;align=center;verticalAlign=middle;resizable=0;points=[];autosize=1;strokeColor=none;fillColor=none;" parent="1" vertex="1">
          <mxGeometry x="-265" y="208" width="30" height="30" as="geometry" />
        </mxCell>
        <mxCell id="GRVf-cc35iNBk32rHGMJ-197" value="1" style="text;html=1;align=center;verticalAlign=middle;resizable=0;points=[];autosize=1;strokeColor=none;fillColor=none;" parent="1" vertex="1">
          <mxGeometry x="-265" y="358" width="30" height="30" as="geometry" />
        </mxCell>
        <mxCell id="GRVf-cc35iNBk32rHGMJ-198" value="M" style="text;html=1;align=center;verticalAlign=middle;resizable=0;points=[];autosize=1;strokeColor=none;fillColor=none;" parent="1" vertex="1">
          <mxGeometry x="65" y="410.5" width="30" height="30" as="geometry" />
        </mxCell>
        <mxCell id="GRVf-cc35iNBk32rHGMJ-200" value="1" style="text;html=1;align=center;verticalAlign=middle;resizable=0;points=[];autosize=1;strokeColor=none;fillColor=none;" parent="1" vertex="1">
          <mxGeometry x="-320" y="639" width="30" height="30" as="geometry" />
        </mxCell>
        <mxCell id="GRVf-cc35iNBk32rHGMJ-201" value="M" style="text;html=1;align=center;verticalAlign=middle;resizable=0;points=[];autosize=1;strokeColor=none;fillColor=none;" parent="1" vertex="1">
          <mxGeometry x="-355" y="178" width="30" height="30" as="geometry" />
        </mxCell>
        <mxCell id="GRVf-cc35iNBk32rHGMJ-202" value="M" style="text;html=1;align=center;verticalAlign=middle;resizable=0;points=[];autosize=1;strokeColor=none;fillColor=none;" parent="1" vertex="1">
          <mxGeometry x="-165" y="618" width="30" height="30" as="geometry" />
        </mxCell>
        <mxCell id="GRVf-cc35iNBk32rHGMJ-203" value="1" style="text;html=1;align=center;verticalAlign=middle;resizable=0;points=[];autosize=1;strokeColor=none;fillColor=none;" parent="1" vertex="1">
          <mxGeometry x="185" y="628" width="30" height="30" as="geometry" />
        </mxCell>
        <mxCell id="GRVf-cc35iNBk32rHGMJ-204" value="1" style="text;html=1;align=center;verticalAlign=middle;resizable=0;points=[];autosize=1;strokeColor=none;fillColor=none;" parent="1" vertex="1">
          <mxGeometry x="265" y="598" width="30" height="30" as="geometry" />
        </mxCell>
        <mxCell id="GRVf-cc35iNBk32rHGMJ-205" value="M" style="text;html=1;align=center;verticalAlign=middle;resizable=0;points=[];autosize=1;strokeColor=none;fillColor=none;" parent="1" vertex="1">
          <mxGeometry x="537.5" y="488" width="30" height="30" as="geometry" />
        </mxCell>
        <mxCell id="GRVf-cc35iNBk32rHGMJ-206" value="1" style="text;html=1;align=center;verticalAlign=middle;resizable=0;points=[];autosize=1;strokeColor=none;fillColor=none;" parent="1" vertex="1">
          <mxGeometry x="325" y="638" width="30" height="30" as="geometry" />
        </mxCell>
        <mxCell id="GRVf-cc35iNBk32rHGMJ-207" value="M" style="text;html=1;align=center;verticalAlign=middle;resizable=0;points=[];autosize=1;strokeColor=none;fillColor=none;" parent="1" vertex="1">
          <mxGeometry x="675" y="628" width="30" height="30" as="geometry" />
        </mxCell>
        <mxCell id="8PQpxy9O9Xi7V9xS_Nx0-30" value="achievement" style="ellipse;shape=doubleEllipse;margin=3;whiteSpace=wrap;html=1;align=center;strokeColor=default;verticalAlign=middle;fontFamily=Helvetica;fontSize=12;fontColor=default;fillColor=default;" parent="1" vertex="1">
          <mxGeometry x="260" y="35" width="100" height="40" as="geometry" />
        </mxCell>
        <mxCell id="8PQpxy9O9Xi7V9xS_Nx0-31" value="routine" style="ellipse;shape=doubleEllipse;margin=3;whiteSpace=wrap;html=1;align=center;strokeColor=default;verticalAlign=middle;fontFamily=Helvetica;fontSize=12;fontColor=default;fillColor=default;" parent="1" vertex="1">
          <mxGeometry x="140" y="30" width="100" height="40" as="geometry" />
        </mxCell>
        <mxCell id="8PQpxy9O9Xi7V9xS_Nx0-33" value="" style="endArrow=none;html=1;rounded=0;fontFamily=Helvetica;fontSize=12;fontColor=default;entryX=0.5;entryY=1;entryDx=0;entryDy=0;exitX=0.75;exitY=0;exitDx=0;exitDy=0;" parent="1" source="GRVf-cc35iNBk32rHGMJ-2" target="8PQpxy9O9Xi7V9xS_Nx0-31" edge="1">
          <mxGeometry width="50" height="50" relative="1" as="geometry">
            <mxPoint x="100" y="420" as="sourcePoint" />
            <mxPoint x="150" y="370" as="targetPoint" />
          </mxGeometry>
        </mxCell>
        <mxCell id="8PQpxy9O9Xi7V9xS_Nx0-35" value="" style="endArrow=none;html=1;rounded=0;fontFamily=Helvetica;fontSize=12;fontColor=default;exitX=1;exitY=0;exitDx=0;exitDy=0;" parent="1" source="GRVf-cc35iNBk32rHGMJ-2" target="8PQpxy9O9Xi7V9xS_Nx0-30" edge="1">
          <mxGeometry width="50" height="50" relative="1" as="geometry">
            <mxPoint x="100" y="420" as="sourcePoint" />
            <mxPoint x="150" y="370" as="targetPoint" />
          </mxGeometry>
        </mxCell>
        <mxCell id="8PQpxy9O9Xi7V9xS_Nx0-36" value="" style="endArrow=none;html=1;rounded=0;fontFamily=Helvetica;fontSize=12;fontColor=default;exitX=0.5;exitY=0;exitDx=0;exitDy=0;entryX=0.5;entryY=1;entryDx=0;entryDy=0;" parent="1" source="GRVf-cc35iNBk32rHGMJ-134" target="GRVf-cc35iNBk32rHGMJ-34" edge="1">
          <mxGeometry width="50" height="50" relative="1" as="geometry">
            <mxPoint x="170" y="433" as="sourcePoint" />
            <mxPoint x="695.7582877635227" y="82.17153570295" as="targetPoint" />
          </mxGeometry>
        </mxCell>
        <mxCell id="8PQpxy9O9Xi7V9xS_Nx0-37" value="has" style="shape=rhombus;perimeter=rhombusPerimeter;whiteSpace=wrap;html=1;align=center;strokeColor=default;verticalAlign=middle;fontFamily=Helvetica;fontSize=12;fontColor=default;fillColor=default;" parent="1" vertex="1">
          <mxGeometry x="320" y="150" width="120" height="60" as="geometry" />
        </mxCell>
        <mxCell id="8PQpxy9O9Xi7V9xS_Nx0-38" value="" style="endArrow=none;html=1;rounded=0;fontFamily=Helvetica;fontSize=12;fontColor=default;entryX=0;entryY=0.5;entryDx=0;entryDy=0;exitX=1;exitY=0.5;exitDx=0;exitDy=0;" parent="1" source="GRVf-cc35iNBk32rHGMJ-2" target="8PQpxy9O9Xi7V9xS_Nx0-37" edge="1">
          <mxGeometry width="50" height="50" relative="1" as="geometry">
            <mxPoint x="100" y="420" as="sourcePoint" />
            <mxPoint x="150" y="370" as="targetPoint" />
          </mxGeometry>
        </mxCell>
        <mxCell id="hPCwyyZ5Trt_sY4lUTd1-1" value="fitness_goal" style="ellipse;shape=doubleEllipse;margin=3;whiteSpace=wrap;html=1;align=center;strokeColor=default;verticalAlign=middle;fontFamily=Helvetica;fontSize=12;fontColor=default;fillColor=default;" vertex="1" parent="1">
          <mxGeometry x="300" y="90" width="100" height="40" as="geometry" />
        </mxCell>
        <mxCell id="hPCwyyZ5Trt_sY4lUTd1-2" value="" style="endArrow=none;html=1;rounded=0;entryX=0;entryY=1;entryDx=0;entryDy=0;exitX=1;exitY=0.5;exitDx=0;exitDy=0;" edge="1" parent="1" source="GRVf-cc35iNBk32rHGMJ-2" target="hPCwyyZ5Trt_sY4lUTd1-1">
          <mxGeometry width="50" height="50" relative="1" as="geometry">
            <mxPoint x="610" y="300" as="sourcePoint" />
            <mxPoint x="660" y="250" as="targetPoint" />
          </mxGeometry>
        </mxCell>
      </root>
    </mxGraphModel>
  </diagram>
</mxfile>
